<?xml version="1.0" encoding="UTF-8" standalone="no"?>
<svg width="912px" height="214px" viewBox="0 0 912 214" version="1.1" xmlns="http://www.w3.org/2000/svg" xmlns:xlink="http://www.w3.org/1999/xlink" xmlns:sketch="http://www.bohemiancoding.com/sketch/ns">
    <!-- Generator: Sketch 3.0 (7573) - http://www.bohemiancoding.com/sketch -->
    <title>iwdd_logo</title>
    <description>Created with Sketch.</description>
    <defs>
        <linearGradient x1="59.5500847%" y1="15.041718%" x2="45.2474%" y2="64.9552394%" id="linearGradient-1">
            <stop stop-color="#FF9E9E" offset="0%"></stop>
            <stop stop-color="#FD2518" offset="100%"></stop>
        </linearGradient>
    </defs>
    <g id="Page-1" stroke="none" stroke-width="1" fill="none" fill-rule="evenodd" sketch:type="MSPage">
        <g id="sq" sketch:type="MSLayerGroup" transform="translate(3.000000, 3.000000)" fill="url(#linearGradient-1)">
            <g id="g1" transform="translate(0.153025, 54.002053)" sketch:type="MSShapeGroup">
                <rect id="r0" transform="translate(50.822064, 49.939024) rotate(-45.000000) translate(-50.822064, -49.939024) " x="15.2348754" y="14.2682927" width="71.1743772" height="71.3414634"></rect>
            </g>
            <g id="g2" transform="translate(54.245552, -0.217459)" sketch:type="MSShapeGroup">
                <rect id="r0" transform="translate(50.822064, 49.939024) rotate(-45.000000) translate(-50.822064, -49.939024) " x="15.2348754" y="14.2682927" width="71.1743772" height="71.3414634"></rect>
            </g>
            <g id="g3" transform="translate(108.338078, 54.002053)" sketch:type="MSShapeGroup">
                <rect id="r0" transform="translate(50.822064, 49.939024) rotate(-45.000000) translate(-50.822064, -49.939024) " x="15.2348754" y="14.2682927" width="71.1743772" height="71.3414634"></rect>
            </g>
            <g id="g4" transform="translate(54.245552, 108.221565)" sketch:type="MSShapeGroup">
                <rect id="r0" transform="translate(50.822064, 49.939024) rotate(-45.000000) translate(-50.822064, -49.939024) " x="15.2348754" y="14.2682927" width="71.1743772" height="71.3414634"></rect>
            </g>
        </g>
        <g id="tx" sketch:type="MSLayerGroup" transform="translate(226.000000, 28.000000)">
            <path d="M54.68,35.64 C54.68,13.08 56.12,11.4 67.16,9.48 L73.88,8.28 C75.8,6.84 75.8,1.32 73.88,-0.12 C60.92,0.36 48.92,0.6 37.64,0.6 C26.12,0.6 14.12,0.36 1.16,-0.12 C-0.76,1.32 -0.76,6.84 1.16,8.28 L7.88,9.48 C18.92,11.4 20.36,13.08 20.36,35.64 L20.36,123.96 C20.36,146.52 18.92,148.2 7.88,150.12 L1.16,151.32 C-0.76,152.76 -0.76,158.28 1.16,159.72 C14.12,159.24 26.12,159 37.64,159 C48.92,159 60.68,159.24 73.64,159.72 C75.56,158.28 75.8,152.76 73.88,151.32 L67.16,150.12 C56.12,148.2 54.68,146.52 54.68,123.96 L54.68,35.64 Z" id="I" fill="#000000" sketch:type="MSShapeGroup"></path>
            <path d="M334.64,8.28 C336.32,6.36 336.08,1.08 333.92,-0.12 C327.2,0.36 320.24,0.6 311.84,0.6 C304.64,0.6 294.8,0.36 287.12,-0.12 C284.96,1.08 284.48,6.12 286.4,8.28 L291.68,9.72 C294.8,10.68 298.64,11.64 298.64,14.04 C298.64,16.68 294.08,29.4 292.4,33.48 C280.88,62.76 267.68,93.24 256.16,121.08 C254.72,117.72 251.36,110.04 245.12,96.84 L233.84,72.6 C232.16,68.76 231.92,67.32 231.92,66.6 C231.92,65.4 235.04,58.44 237.2,54.12 C240.32,47.88 246.32,35.88 252.08,26.04 C260.48,11.64 262.16,11.64 270.32,9.96 L277.04,8.52 C279.2,6.84 278.72,1.08 276.8,-0.12 C270.56,0.36 261.68,0.6 252.32,0.6 C244.4,0.6 235.76,0.36 228.8,-0.12 C226.64,1.08 226.4,6.6 228.08,8.28 L236.72,9.96 C240.56,10.92 241.52,11.64 241.52,13.32 C241.52,14.76 238.64,21.96 234.56,31.08 L232.4,35.88 C230,41.16 227.36,47.16 224.96,52.2 C222.8,47.88 219.68,41.4 217.52,36.36 L210.32,19.8 C209.12,17.16 208.16,14.52 208.16,12.6 C208.16,10.92 211.76,9.96 214.64,9.24 L218.72,8.28 C220.4,7.08 220.64,0.6 217.76,-0.12 C211.52,0.36 202.4,0.6 190.16,0.6 C179.6,0.6 170.24,0.36 159.92,-0.12 C157.28,0.84 156.8,6.36 159.2,8.28 L161.6,8.52 C170.72,9.48 172.4,11.16 177.92,23.16 L200.96,73.8 C201.92,76.2 203.6,81.24 203.6,82.68 C203.6,84.12 202.88,87.24 201.2,91.08 L198.08,98.04 C194.24,106.68 188.72,117.96 185.84,122.76 C182.96,117 179.36,110.28 172.64,95.4 L148.88,42.36 C141.44,25.56 136.4,14.28 136.4,12.6 C136.4,10.92 138.08,9.72 142.4,9 L146.72,8.28 C149.12,6.84 148.16,0.84 146.24,-0.12 C137.12,0.36 127.76,0.6 117.2,0.6 C104.96,0.6 94.88,0.36 86,-0.12 C83.36,1.08 83.12,5.88 85.04,8.28 L91.04,9.48 C98.96,11.16 100.4,12.36 106.88,26.52 L146.24,112.44 C154.4,130.44 164,152.04 167.84,162.12 C170,163.32 171.44,164.04 174.08,164.04 C177.68,164.04 180.8,163.32 182,162.12 C185.84,154.2 188.48,147.24 192.08,139.56 L203.36,115.08 C206.48,108.36 209.36,102.6 211.52,98.52 C213.68,102.12 216.8,109.32 220.16,117 L230.24,139.8 C233.12,146.52 236.72,155.16 239.36,160.92 C241.04,162.12 243.2,162.84 245.84,162.84 C248.96,162.84 252.32,162.12 253.76,160.92 C265.52,129.72 291.68,69.96 303.44,41.88 C309.92,26.76 314,19.08 316.64,15.24 C318.32,13.08 321.92,11.16 327.44,9.96 L334.64,8.28 Z" id="W" fill="#FD2518" sketch:type="MSShapeGroup"></path>
            <path d="M361.36,124.44 C361.36,146.52 359.92,148.44 349.12,150.12 L341.68,151.32 C339.76,152.52 339.76,158.28 341.68,159.72 C355.36,159.24 367.6,159 379.12,159 C387.76,159 399.76,160.44 411.04,160.44 C435.76,160.44 455.44,157.32 471.76,149.16 C499.36,135.48 514.72,109.56 514.72,77.4 C514.72,47.4 497.44,19.08 466,7.8 C449.44,1.8 429.76,-0.12 410.08,-0.12 C384.64,-0.12 365.92,0.84 345.76,2.04 C342.88,2.28 342.88,9.24 345.28,10.44 L349.84,10.92 C360.88,12.12 361.36,16.68 361.36,39.48 L361.36,124.44 Z M395.68,27.96 C395.68,20.52 395.92,15.96 397.36,14.04 C398.8,12.12 403.36,10.92 409.84,10.92 C453.28,10.92 476.08,36.6 476.08,79.8 C476.08,112.44 461.92,149.4 420.4,149.4 C411.76,149.4 404.8,147.24 400.48,142.44 C396.16,137.4 395.68,128.76 395.68,115.56 L395.68,27.96 Z" id="D-2" fill="#000000" sketch:type="MSShapeGroup"></path>
            <path d="M529.36,124.44 C529.36,146.52 527.92,148.44 517.12,150.12 L509.68,151.32 C507.76,152.52 507.76,158.28 509.68,159.72 C523.36,159.24 535.6,159 547.12,159 C555.76,159 567.76,160.44 579.04,160.44 C603.76,160.44 623.44,157.32 639.76,149.16 C667.36,135.48 682.72,109.56 682.72,77.4 C682.72,47.4 665.44,19.08 634,7.8 C617.44,1.8 597.76,-0.12 578.08,-0.12 C552.64,-0.12 533.92,0.84 513.76,2.04 C510.88,2.28 510.88,9.24 513.28,10.44 L517.84,10.92 C528.88,12.12 529.36,16.68 529.36,39.48 L529.36,124.44 Z M563.68,27.96 C563.68,20.52 563.92,15.96 565.36,14.04 C566.8,12.12 571.36,10.92 577.84,10.92 C621.28,10.92 644.08,36.6 644.08,79.8 C644.08,112.44 629.92,149.4 588.4,149.4 C579.76,149.4 572.8,147.24 568.48,142.44 C564.16,137.4 563.68,128.76 563.68,115.56 L563.68,27.96 Z" id="D" fill="#000000" sketch:type="MSShapeGroup"></path>
        </g>
    </g>
</svg>